<svg width="145" height="48" viewBox="0 0 145 48" fill="none" xmlns="http://www.w3.org/2000/svg">
<g clip-path="url(#clip0_1_4095)">
<path d="M46.384 37.8748C46.3157 37.8802 46.2469 37.8716 46.182 37.8496C46.0175 37.8221 45.8601 37.7623 45.7189 37.6736C45.5777 37.585 45.4554 37.4692 45.3591 37.3331C45.2629 37.1969 45.1946 37.043 45.1581 36.8803C45.1217 36.7176 45.1178 36.5493 45.1468 36.3851C45.35 35.2007 45.4513 34.0012 45.4498 32.7996C45.4744 27.9297 43.8323 23.1978 40.7962 19.3901C37.7601 15.5823 33.5127 12.9278 28.7596 11.8674C28.4315 11.7938 28.146 11.5928 27.9661 11.3087C27.7861 11.0245 27.7264 10.6806 27.8001 10.3524C27.8738 10.0243 28.0748 9.73887 28.3589 9.55893C28.643 9.37899 28.987 9.31929 29.3151 9.39295C34.6148 10.6077 39.3459 13.584 42.7352 17.8355C46.1245 22.087 47.9716 27.3624 47.9747 32.7996C47.9794 34.1363 47.8696 35.471 47.6465 36.7891C47.5982 37.09 47.4449 37.3641 47.2138 37.5628C46.9828 37.7616 46.6888 37.8721 46.384 37.8748Z" fill="#40BDEF"/>
<path d="M3.78748 44.5408C3.55701 44.5427 3.33066 44.4798 3.13422 44.3592C2.93778 44.2387 2.77917 44.0654 2.67649 43.859C0.995992 40.6032 0.082357 37.0061 0.00545401 33.3429C-0.071449 29.6798 0.690417 26.0475 2.23279 22.724C3.77515 19.4005 6.05717 16.4737 8.90431 14.1675C11.7514 11.8613 15.0883 10.2368 18.6597 9.4182C18.9878 9.34454 19.3318 9.40424 19.6159 9.58418C19.9 9.76412 20.101 10.0496 20.1746 10.3777C20.2483 10.7058 20.1886 11.0498 20.0087 11.3339C19.8287 11.618 19.5433 11.819 19.2152 11.8927C16.0203 12.6239 13.0351 14.0764 10.4881 16.1391C7.94107 18.2017 5.89978 20.8198 4.52046 23.7929C3.14114 26.766 2.46037 30.0152 2.53027 33.292C2.60017 36.5687 3.41888 39.786 4.92372 42.6975C5.00118 42.8432 5.04891 43.0028 5.06415 43.167C5.07939 43.3313 5.06183 43.4969 5.01249 43.6543C4.96316 43.8117 4.88303 43.9578 4.77676 44.0839C4.67049 44.2101 4.54021 44.3139 4.39348 44.3893C4.20616 44.4866 3.99856 44.5385 3.78748 44.5408Z" fill="#40BDEF"/>
<path d="M23.9621 47.9747C23.6273 47.9747 23.3062 47.8417 23.0694 47.605C22.8326 47.3682 22.6996 47.0471 22.6996 46.7123V1.26249C22.6996 0.927659 22.8326 0.606538 23.0694 0.369775C23.3062 0.133011 23.6273 0 23.9621 0C24.297 0 24.6181 0.133011 24.8548 0.369775C25.0916 0.606538 25.2246 0.927659 25.2246 1.26249V46.7123C25.2246 47.0471 25.0916 47.3682 24.8548 47.605C24.6181 47.8417 24.297 47.9747 23.9621 47.9747Z" fill="#40BDEF"/>
<path d="M18.9122 35.3498C18.5773 35.3498 18.2562 35.2168 18.0194 34.98C17.7827 34.7433 17.6497 34.4222 17.6497 34.0873V16.4124C17.6497 16.0776 17.7827 15.7565 18.0194 15.5197C18.2562 15.2829 18.5773 15.1499 18.9122 15.1499C19.247 15.1499 19.5681 15.2829 19.8049 15.5197C20.0416 15.7565 20.1746 16.0776 20.1746 16.4124V34.0873C20.1746 34.4222 20.0416 34.7433 19.8049 34.98C19.5681 35.2168 19.247 35.3498 18.9122 35.3498Z" fill="#40BDEF"/>
<path d="M13.8622 42.9248C13.5273 42.9248 13.2062 42.7918 12.9695 42.555C12.7327 42.3182 12.5997 41.9971 12.5997 41.6623V29.0373C12.5997 28.7025 12.7327 28.3814 12.9695 28.1446C13.2062 27.9079 13.5273 27.7749 13.8622 27.7749C14.197 27.7749 14.5181 27.9079 14.7549 28.1446C14.9917 28.3814 15.1247 28.7025 15.1247 29.0373V41.6623C15.1247 41.9971 14.9917 42.3182 14.7549 42.555C14.5181 42.7918 14.197 42.9248 13.8622 42.9248Z" fill="#40BDEF"/>
<path d="M8.81221 47.9748C8.47737 47.9748 8.15625 47.8417 7.91949 47.605C7.68272 47.3682 7.54971 47.0471 7.54971 46.7123V39.1373C7.54971 38.8025 7.68272 38.4813 7.91949 38.2446C8.15625 38.0078 8.47737 37.8748 8.81221 37.8748C9.14704 37.8748 9.46816 38.0078 9.70492 38.2446C9.94169 38.4813 10.0747 38.8025 10.0747 39.1373V46.7123C10.0747 47.0471 9.94169 47.3682 9.70492 47.605C9.46816 47.8417 9.14704 47.9748 8.81221 47.9748Z" fill="#40BDEF"/>
<path d="M46.687 42.9248H29.0121C28.6773 42.9248 28.3561 42.7918 28.1194 42.555C27.8826 42.3182 27.7496 41.9971 27.7496 41.6623C27.7496 41.3274 27.8826 41.0063 28.1194 40.7696C28.3561 40.5328 28.6773 40.3998 29.0121 40.3998H46.687C47.0218 40.3998 47.343 40.5328 47.5797 40.7696C47.8165 41.0063 47.9495 41.3274 47.9495 41.6623C47.9495 41.9971 47.8165 42.3182 47.5797 42.555C47.343 42.7918 47.0218 42.9248 46.687 42.9248Z" fill="#40BDEF"/>
<path d="M41.637 37.8748H29.0121C28.6773 37.8748 28.3561 37.7418 28.1194 37.505C27.8826 37.2683 27.7496 36.9471 27.7496 36.6123C27.7496 36.2775 27.8826 35.9563 28.1194 35.7196C28.3561 35.4828 28.6773 35.3498 29.0121 35.3498H41.637C41.9719 35.3498 42.293 35.4828 42.5297 35.7196C42.7665 35.9563 42.8995 36.2775 42.8995 36.6123C42.8995 36.9471 42.7665 37.2683 42.5297 37.505C42.293 37.7418 41.9719 37.8748 41.637 37.8748Z" fill="#40BDEF"/>
<path d="M36.5871 32.8248H29.0121C28.6773 32.8248 28.3561 32.6918 28.1194 32.4551C27.8826 32.2183 27.7496 31.8972 27.7496 31.5623C27.7496 31.2275 27.8826 30.9064 28.1194 30.6696C28.3561 30.4329 28.6773 30.2998 29.0121 30.2998H36.5871C36.9219 30.2998 37.243 30.4329 37.4798 30.6696C37.7165 30.9064 37.8496 31.2275 37.8496 31.5623C37.8496 31.8972 37.7165 32.2183 37.4798 32.4551C37.243 32.6918 36.9219 32.8248 36.5871 32.8248Z" fill="#40BDEF"/>
<path d="M31.5371 27.7748H29.0121C28.6773 27.7748 28.3561 27.6418 28.1194 27.4051C27.8826 27.1683 27.7496 26.8472 27.7496 26.5124C27.7496 26.1775 27.8826 25.8564 28.1194 25.6196C28.3561 25.3829 28.6773 25.2499 29.0121 25.2499H31.5371C31.8719 25.2499 32.193 25.3829 32.4298 25.6196C32.6666 25.8564 32.7996 26.1775 32.7996 26.5124C32.7996 26.8472 32.6666 27.1683 32.4298 27.4051C32.193 27.6418 31.8719 27.7748 31.5371 27.7748Z" fill="#40BDEF"/>
<path d="M59.9432 19.9221C59.3299 19.7586 58.755 19.4754 58.2514 19.0889C58.1369 19.0052 58.0448 18.8947 57.9831 18.767C57.9215 18.6393 57.8922 18.4983 57.898 18.3566C57.8927 18.2552 57.9078 18.1538 57.9425 18.0584C57.9772 17.963 58.0308 17.8755 58.0999 17.8011C58.1531 17.7309 58.2218 17.6738 58.3006 17.6344C58.3795 17.595 58.4663 17.5743 58.5544 17.5739C58.7772 17.5938 58.9928 17.6628 59.1857 17.7759C59.6021 18.0725 60.0621 18.3025 60.5492 18.4576C61.0578 18.604 61.5856 18.6721 62.1147 18.6596C62.8469 18.6596 63.4277 18.5334 63.8064 18.2809C63.9977 18.1626 64.153 17.9941 64.2553 17.7938C64.3577 17.5935 64.4033 17.369 64.3872 17.1447C64.3907 16.9593 64.34 16.7768 64.2414 16.6198C64.1427 16.4629 64.0003 16.3381 63.8317 16.2609C63.2436 15.9862 62.6248 15.7827 61.9884 15.6549C61.2453 15.5059 60.5181 15.2861 59.8169 14.9984C59.3213 14.7912 58.8868 14.461 58.5544 14.0389C58.2587 13.5996 58.1085 13.0785 58.1252 12.5492C58.1185 11.9434 58.3042 11.351 58.6554 10.8574C59.0347 10.3396 59.5505 9.93752 60.1452 9.69595C60.8162 9.41463 61.5387 9.277 62.2662 9.29195C63.7054 9.29195 64.8922 9.6707 65.8012 10.4534C65.915 10.5429 66.0095 10.6546 66.0789 10.7817C66.133 10.9093 66.1588 11.0471 66.1547 11.1857C66.1533 11.3886 66.0819 11.5848 65.9527 11.7412C65.8995 11.8115 65.8308 11.8685 65.752 11.9079C65.6731 11.9473 65.5863 11.968 65.4982 11.9684C65.4035 11.9662 65.3098 11.9492 65.2204 11.9179C65.0952 11.875 64.9764 11.8156 64.8669 11.7412C64.4974 11.4575 64.0893 11.2279 63.6549 11.0594C63.1937 10.8941 62.7054 10.8171 62.2157 10.8322C61.6417 10.8117 61.0733 10.9516 60.5744 11.2362C60.3811 11.3603 60.2235 11.5328 60.1172 11.7365C60.011 11.9402 59.9597 12.1681 59.9684 12.3977C59.964 12.5902 60.0108 12.7805 60.1039 12.9491C60.1971 13.1176 60.3333 13.2585 60.4987 13.3572C61.0616 13.6555 61.6658 13.8683 62.2914 13.9884C63.0447 14.1412 63.7807 14.3696 64.4882 14.6702C64.992 14.8753 65.4352 15.2055 65.7759 15.6297C66.0899 16.0421 66.2506 16.5509 66.2304 17.0689C66.2408 17.6675 66.0546 18.2529 65.7002 18.7354C65.3278 19.2376 64.8197 19.6231 64.2357 19.8464C63.5476 20.13 62.8082 20.2676 62.0642 20.2504C61.3466 20.2258 60.6346 20.1156 59.9432 19.9221Z" fill="#3D3D3D"/>
<path d="M69.3361 19.7454C68.7673 19.4417 68.3016 18.9759 67.9979 18.4072C67.674 17.7746 67.5093 17.0725 67.5181 16.3619C67.4969 15.65 67.6623 14.9449 67.9979 14.3167C68.2943 13.7425 68.762 13.2748 69.3361 12.9784C69.9517 12.6574 70.6367 12.4927 71.3309 12.4987C72.0264 12.4803 72.7145 12.6458 73.3256 12.9784C73.8926 13.276 74.3519 13.7441 74.6386 14.3167C74.9379 14.957 75.093 15.6551 75.093 16.3619C75.093 17.0687 74.9379 17.7669 74.6386 18.4072C74.3445 18.9744 73.8872 19.4406 73.3256 19.7454C72.7101 20.0664 72.0251 20.2312 71.3309 20.2251C70.6353 20.2435 69.9473 20.078 69.3361 19.7454ZM72.7196 18.1547C73.0479 17.7507 73.1994 17.1447 73.1994 16.3619C73.1994 15.5792 73.0479 14.9984 72.7196 14.5692C72.5557 14.3618 72.3433 14.1981 72.1011 14.0924C71.8589 13.9867 71.5943 13.9423 71.3309 13.9632C71.0678 13.9454 70.8042 13.9911 70.5625 14.0966C70.3208 14.2021 70.108 14.3642 69.9421 14.5692C69.6139 14.9732 69.4371 15.5792 69.4371 16.3619C69.4371 17.1447 69.5886 17.7507 69.9169 18.1547C70.0845 18.3576 70.2976 18.5182 70.5389 18.6235C70.7802 18.7288 71.0428 18.7758 71.3056 18.7606C71.5724 18.7784 71.8396 18.7327 72.0854 18.6274C72.3311 18.5221 72.5485 18.3601 72.7196 18.1547Z" fill="#3D3D3D"/>
<path d="M79.3351 11.2614C79.1036 11.5746 78.9876 11.9582 79.0068 12.3472V12.7007H80.2946C80.8501 12.7007 81.1531 12.9279 81.1531 13.4077C81.1531 13.8874 80.8753 14.1147 80.2946 14.1147H79.0068V19.2909C79.0144 19.4143 78.9933 19.5379 78.9451 19.6518C78.8969 19.7657 78.823 19.8669 78.7291 19.9474C78.5324 20.0949 78.2932 20.1746 78.0473 20.1746C77.8015 20.1746 77.5623 20.0949 77.3656 19.9474C77.2738 19.8652 77.2012 19.7637 77.1532 19.6502C77.1052 19.5367 77.0829 19.414 77.0879 19.2909V14.1147H76.3304C75.7749 14.1147 75.4719 13.8874 75.4719 13.4077C75.4719 12.9279 75.7496 12.7007 76.3304 12.7007H77.0879V12.5997C77.0879 11.6402 77.3404 10.9079 77.8453 10.3524C78.4066 9.78429 79.1678 9.45808 79.9663 9.44345L80.3703 9.4182C80.6627 9.37882 80.9602 9.42258 81.2288 9.54445C81.3126 9.60402 81.3797 9.68399 81.4239 9.77678C81.4681 9.86958 81.4879 9.97213 81.4813 10.0747C81.4813 10.5039 81.2288 10.7564 80.7491 10.8069L80.3451 10.8322C80.1564 10.8317 79.9697 10.8694 79.7961 10.9432C79.6225 11.017 79.4656 11.1253 79.3351 11.2614Z" fill="#3D3D3D"/>
<path d="M86.2283 19.4676C86.2339 19.5792 86.2085 19.6901 86.1551 19.7881C86.1016 19.8861 86.0221 19.9675 85.9253 20.0231C85.6704 20.16 85.3788 20.213 85.0921 20.1746L84.6881 20.1494C82.9963 20.0231 82.1378 19.1141 82.1378 17.4224V14.1147H81.3803C81.1555 14.1332 80.9315 14.0705 80.7491 13.9379C80.6773 13.8695 80.6201 13.7873 80.581 13.6961C80.542 13.605 80.5218 13.5068 80.5218 13.4077C80.5218 13.3085 80.542 13.2104 80.581 13.1192C80.6201 13.0281 80.6773 12.9458 80.7491 12.8774C80.9315 12.7448 81.1555 12.6821 81.3803 12.7007H82.1378V11.2867C82.131 11.1656 82.15 11.0445 82.1935 10.9313C82.2371 10.8181 82.3041 10.7155 82.3903 10.6302C82.5866 10.4614 82.8385 10.3714 83.0973 10.3777C83.2222 10.3709 83.3471 10.3898 83.4644 10.4332C83.5816 10.4767 83.6887 10.5437 83.7791 10.6302C83.8672 10.7141 83.9355 10.8165 83.9792 10.93C84.0229 11.0436 84.0408 11.1654 84.0316 11.2867V12.6754H85.3193C85.5441 12.6569 85.7681 12.7196 85.9506 12.8522C86.0224 12.9206 86.0795 13.0028 86.1186 13.094C86.1577 13.1851 86.1778 13.2833 86.1778 13.3824C86.1778 13.4816 86.1577 13.5797 86.1186 13.6709C86.0795 13.762 86.0224 13.8443 85.9506 13.9127C85.7681 14.0453 85.5441 14.108 85.3193 14.0894H84.0316V17.5234C84.0316 18.2809 84.3851 18.6596 85.0668 18.7101L85.4708 18.7354C85.9758 18.8111 86.2283 19.0384 86.2283 19.4676Z" fill="#3D3D3D"/>
<path d="M97.6665 12.7007C97.7984 12.6065 97.9594 12.5618 98.121 12.5744C98.3517 12.5727 98.5756 12.6532 98.7522 12.8017C98.8383 12.8721 98.9079 12.9607 98.9559 13.0611C99.0039 13.1615 99.0292 13.2712 99.03 13.3824C99.0318 13.5045 99.0059 13.6254 98.9542 13.7359L96.4545 19.5939C96.3861 19.7792 96.251 19.9322 96.0757 20.0231C95.9077 20.1229 95.7157 20.1753 95.5203 20.1746C95.3323 20.1786 95.1475 20.1258 94.99 20.0231C94.8262 19.9182 94.695 19.7695 94.6113 19.5939L92.8185 15.2509L91.0763 19.5939C91.0079 19.7792 90.8728 19.9322 90.6975 20.0231C90.5292 20.1224 90.3374 20.1748 90.142 20.1748C89.9466 20.1748 89.7548 20.1224 89.5865 20.0231C89.4165 19.9256 89.2834 19.7747 89.2078 19.5939L86.7333 13.7359C86.6895 13.6316 86.6639 13.5206 86.6575 13.4077C86.66 13.2905 86.6884 13.1754 86.7408 13.0706C86.7932 12.9658 86.8683 12.8739 86.9605 12.8017C87.1406 12.6392 87.3745 12.5492 87.617 12.5492C87.7848 12.5522 87.9493 12.5955 88.0968 12.6754C88.2449 12.7734 88.3595 12.9144 88.425 13.0794L90.2178 17.7002L92.061 13.1299C92.1281 12.9517 92.2524 12.8007 92.4145 12.7007C92.5644 12.6018 92.74 12.549 92.9195 12.549C93.0991 12.549 93.2747 12.6018 93.4245 12.7007C93.581 12.8069 93.7037 12.9559 93.778 13.1299L95.6212 17.7254L97.3887 13.1047C97.4287 12.9405 97.5275 12.7968 97.6665 12.7007Z" fill="#3D3D3D"/>
<path d="M105.721 13.2814C106.226 13.7864 106.479 14.5692 106.479 15.6044V19.2909C106.489 19.4085 106.471 19.5268 106.427 19.6364C106.383 19.746 106.315 19.8439 106.226 19.9221C106.137 20.0016 106.033 20.0625 105.921 20.1015C105.808 20.1406 105.689 20.1568 105.57 20.1494C105.453 20.1522 105.337 20.1312 105.228 20.0878C105.12 20.0443 105.021 19.9793 104.939 19.8967C104.856 19.8141 104.791 19.7156 104.748 19.6071C104.704 19.4986 104.683 19.3825 104.686 19.2656V18.9374C104.517 19.3232 104.235 19.649 103.878 19.8716C103.488 20.1008 103.042 20.2146 102.59 20.1999C102.126 20.2073 101.667 20.1034 101.252 19.8969C100.863 19.7112 100.531 19.4232 100.292 19.0636C100.062 18.7106 99.9396 18.2983 99.939 17.8769C99.905 17.4119 100.049 16.9514 100.343 16.5892C100.721 16.2336 101.195 15.9966 101.706 15.9074C102.563 15.7447 103.436 15.677 104.307 15.7054H104.686V15.3519C104.686 14.8469 104.585 14.4934 104.358 14.2662C104.22 14.1381 104.056 14.0404 103.878 13.9795C103.699 13.9186 103.51 13.8958 103.322 13.9127C103.024 13.9175 102.727 13.9599 102.439 14.0389C102.068 14.1394 101.705 14.2659 101.353 14.4177C101.175 14.5225 100.977 14.5912 100.772 14.6197C100.687 14.6185 100.602 14.6 100.524 14.5653C100.446 14.5306 100.376 14.4804 100.318 14.4177C100.256 14.3496 100.209 14.2698 100.178 14.1831C100.148 14.0964 100.135 14.0044 100.141 13.9127C100.14 13.7524 100.184 13.5952 100.267 13.4582C100.376 13.3036 100.524 13.1814 100.696 13.1047C101.091 12.8891 101.517 12.7358 101.959 12.6502C102.432 12.5432 102.914 12.484 103.398 12.4734C104.459 12.4987 105.216 12.7764 105.721 13.2814ZM104.181 18.3566C104.345 18.1811 104.472 17.9744 104.554 17.7488C104.636 17.5233 104.673 17.2835 104.661 17.0437V16.7154H104.383C103.859 16.6996 103.335 16.7334 102.817 16.8164C102.522 16.8443 102.241 16.9584 102.009 17.1447C101.926 17.227 101.861 17.3255 101.818 17.4341C101.774 17.5426 101.754 17.659 101.757 17.7759C101.755 17.9243 101.785 18.0714 101.846 18.2067C101.907 18.342 101.998 18.4622 102.11 18.5586C102.34 18.7615 102.638 18.8698 102.944 18.8616C103.174 18.8693 103.403 18.8282 103.616 18.7412C103.829 18.6542 104.022 18.5232 104.181 18.3566Z" fill="#3D3D3D"/>
<path d="M113.145 12.7007C113.223 12.7745 113.285 12.8649 113.324 12.9654C113.363 13.0658 113.38 13.1738 113.372 13.2814C113.38 13.3908 113.366 13.5006 113.331 13.6046C113.297 13.7086 113.242 13.8047 113.17 13.8874C112.969 14.0479 112.72 14.1367 112.463 14.1399L112.008 14.1904C111.759 14.1932 111.513 14.2486 111.287 14.353C111.061 14.4574 110.859 14.6086 110.695 14.7964C110.417 15.1667 110.274 15.6213 110.291 16.0842V19.2657C110.299 19.3928 110.278 19.52 110.23 19.6379C110.182 19.7558 110.108 19.8616 110.014 19.9474C109.817 20.0949 109.578 20.1747 109.332 20.1747C109.086 20.1747 108.847 20.0949 108.65 19.9474C108.56 19.8598 108.49 19.7531 108.447 19.6351C108.403 19.5172 108.386 19.3909 108.398 19.2657V13.4077C108.394 13.287 108.415 13.1669 108.458 13.0542C108.502 12.9415 108.567 12.8385 108.65 12.7512C108.834 12.5986 109.068 12.5179 109.307 12.5239C109.539 12.5135 109.766 12.5952 109.938 12.7512C110.021 12.8335 110.086 12.932 110.13 13.0406C110.173 13.1492 110.194 13.2655 110.19 13.3824V13.9884C110.368 13.5663 110.667 13.2061 111.049 12.9532C111.426 12.7069 111.862 12.5673 112.311 12.5492L112.513 12.5239C112.738 12.5054 112.962 12.5681 113.145 12.7007Z" fill="#3D3D3D"/>
<path d="M120.316 18.2557C120.425 18.4099 120.479 18.597 120.467 18.7859C120.458 18.9556 120.401 19.1193 120.303 19.2579C120.205 19.3965 120.069 19.5043 119.912 19.5686C119.549 19.7759 119.157 19.929 118.75 20.0231C118.346 20.1279 117.931 20.1872 117.513 20.1999C116.326 20.1999 115.367 19.8464 114.685 19.1647C114.003 18.4829 113.65 17.5487 113.65 16.3367C113.636 15.6365 113.792 14.9433 114.104 14.3167C114.395 13.7489 114.842 13.2758 115.392 12.9532C115.943 12.6472 116.561 12.4825 117.191 12.4737C117.821 12.4649 118.443 12.6123 119.003 12.9027C119.499 13.1968 119.902 13.6259 120.164 14.1399C120.45 14.7291 120.589 15.379 120.568 16.0337C120.568 16.4629 120.366 16.6902 119.987 16.6902H115.518C115.569 17.3972 115.771 17.9022 116.099 18.2304C116.296 18.4088 116.528 18.5455 116.78 18.6323C117.031 18.7191 117.298 18.7542 117.563 18.7354C117.854 18.7362 118.144 18.6937 118.422 18.6092C118.674 18.5334 118.952 18.4072 119.255 18.2809C119.458 18.159 119.68 18.0735 119.912 18.0284C120.066 18.0629 120.206 18.142 120.316 18.2557ZM116.048 14.3167C115.721 14.7092 115.527 15.1954 115.493 15.7054H118.927C118.936 15.1968 118.776 14.6996 118.472 14.2914C118.323 14.1273 118.139 13.9989 117.934 13.9158C117.728 13.8327 117.507 13.7971 117.286 13.8117C116.824 13.8143 116.38 13.9952 116.048 14.3167Z" fill="#3D3D3D"/>
<path d="M59.9432 33.8096C59.3299 33.646 58.755 33.3628 58.2514 32.9763C58.1369 32.8927 58.0448 32.7821 57.9831 32.6544C57.9215 32.5267 57.8922 32.3858 57.898 32.2441C57.8927 32.1427 57.9078 32.0412 57.9425 31.9458C57.9772 31.8504 58.0308 31.7629 58.0999 31.6886C58.1531 31.6183 58.2218 31.5612 58.3006 31.5218C58.3795 31.4824 58.4663 31.4617 58.5544 31.4613C58.7772 31.4812 58.9928 31.5502 59.1857 31.6633C59.6021 31.9599 60.0621 32.1899 60.5492 32.3451C61.0578 32.4914 61.5856 32.5595 62.1147 32.5471C62.8469 32.5471 63.4277 32.4208 63.8064 32.1683C63.9977 32.05 64.153 31.8815 64.2553 31.6812C64.3577 31.4809 64.4033 31.2564 64.3872 31.0321C64.3907 30.8467 64.34 30.6643 64.2414 30.5073C64.1427 30.3503 64.0003 30.2255 63.8317 30.1483C63.2436 29.8736 62.6248 29.6702 61.9884 29.5423C61.2453 29.3933 60.5181 29.1735 59.8169 28.8858C59.3213 28.6787 58.8868 28.3484 58.5544 27.9263C58.2587 27.4871 58.1085 26.9659 58.1252 26.4366C58.1185 25.8308 58.3042 25.2385 58.6554 24.7449C59.0347 24.2271 59.5505 23.8249 60.1452 23.5834C60.8162 23.302 61.5387 23.1644 62.2662 23.1794C63.7054 23.1794 64.8922 23.5581 65.8012 24.3409C65.915 24.4303 66.0095 24.542 66.0789 24.6691C66.133 24.7967 66.1588 24.9346 66.1547 25.0731C66.1533 25.276 66.0819 25.4722 65.9527 25.6286C65.8995 25.6989 65.8308 25.7559 65.752 25.7953C65.6731 25.8348 65.5863 25.8555 65.4982 25.8559C65.4035 25.8536 65.3098 25.8366 65.2204 25.8054C65.0952 25.7624 64.9764 25.703 64.8669 25.6286C64.4974 25.3449 64.0893 25.1153 63.6549 24.9469C63.1937 24.7816 62.7054 24.7045 62.2157 24.7196C61.6379 24.6943 61.0658 24.8439 60.5744 25.1489C60.3811 25.273 60.2235 25.4455 60.1172 25.6492C60.011 25.8529 59.9597 26.0808 59.9684 26.3103C59.964 26.5029 60.0108 26.6932 60.1039 26.8617C60.1971 27.0303 60.3333 27.1711 60.4987 27.2698C61.0616 27.5682 61.6658 27.781 62.2914 27.9011C63.0447 28.0539 63.7807 28.2823 64.4882 28.5828C64.992 28.788 65.4352 29.1182 65.7759 29.5423C66.0899 29.9547 66.2506 30.4636 66.2304 30.9816C66.2408 31.5801 66.0546 32.1656 65.7002 32.6481C65.3278 33.1503 64.8197 33.5358 64.2357 33.7591C63.5441 34.0307 62.8071 34.1678 62.0642 34.1631C61.3471 34.1172 60.6364 33.9988 59.9432 33.8096Z" fill="#3D3D3D"/>
<path d="M74.2346 32.1431C74.3442 32.2973 74.3977 32.4845 74.3861 32.6733C74.3772 32.843 74.3203 33.0067 74.222 33.1453C74.1236 33.2839 73.9879 33.3917 73.8306 33.4561C73.4676 33.6633 73.0764 33.8164 72.6691 33.9106C72.2646 34.0153 71.8496 34.0746 71.4319 34.0873C70.2451 34.0873 69.2856 33.7338 68.6039 33.0521C67.9222 32.3703 67.5687 31.4361 67.5687 30.2241C67.5546 29.5239 67.7105 28.8308 68.0231 28.2041C68.3139 27.6363 68.7606 27.1633 69.3109 26.8406C69.8618 26.5347 70.4798 26.3699 71.1099 26.3611C71.74 26.3523 72.3624 26.4997 72.9216 26.7901C73.4181 27.0842 73.8209 27.5133 74.0831 28.0273C74.3693 28.6165 74.508 29.2664 74.4871 29.9211C74.4871 30.3503 74.2851 30.5776 73.9064 30.5776H69.4371C69.4876 31.2846 69.6896 31.7896 70.0179 32.1178C70.2154 32.2963 70.447 32.433 70.6986 32.5197C70.9503 32.6065 71.2169 32.6416 71.4824 32.6228C71.7732 32.6236 72.0626 32.5811 72.3409 32.4966C72.5934 32.4208 72.8711 32.2946 73.1741 32.1683C73.3765 32.0464 73.5987 31.961 73.8306 31.9158C73.9846 31.9504 74.1251 32.0294 74.2346 32.1431ZM69.9674 28.2041C69.64 28.5966 69.4455 29.0828 69.4119 29.5928H72.8459C72.8596 29.0913 72.6989 28.6005 72.3914 28.2041C72.2424 28.0399 72.0584 27.9115 71.8529 27.8285C71.6474 27.7454 71.4258 27.7098 71.2046 27.7244C70.9766 27.7158 70.7492 27.7539 70.5364 27.8364C70.3237 27.9189 70.13 28.044 69.9674 28.2041Z" fill="#3D3D3D"/>
<path d="M80.7491 26.5881C80.8278 26.6619 80.8891 26.7523 80.9284 26.8528C80.9677 26.9533 80.9841 27.0612 80.9763 27.1689C80.9843 27.2782 80.9706 27.388 80.9359 27.492C80.9012 27.5961 80.8463 27.6922 80.7743 27.7748C80.5733 27.9353 80.3245 28.0241 80.0673 28.0273L79.6128 28.0778C79.3636 28.0806 79.1178 28.136 78.8915 28.2404C78.6652 28.3449 78.4636 28.496 78.2998 28.6838C78.0215 29.0541 77.8789 29.5087 77.8958 29.9716V33.1531C77.9032 33.2802 77.8821 33.4074 77.834 33.5253C77.786 33.6433 77.7122 33.749 77.6181 33.8348C77.4214 33.9823 77.1822 34.0621 76.9364 34.0621C76.6905 34.0621 76.4513 33.9823 76.2546 33.8348C76.1643 33.7472 76.0948 33.6405 76.0511 33.5226C76.0074 33.4046 75.9907 33.2783 76.0021 33.1531V27.2951C75.9987 27.1744 76.0193 27.0543 76.0627 26.9416C76.106 26.8289 76.1712 26.7259 76.2546 26.6386C76.4388 26.486 76.672 26.4053 76.9111 26.4114C77.1432 26.4009 77.3701 26.4826 77.5423 26.6386C77.6254 26.7209 77.6907 26.8194 77.7342 26.928C77.7776 27.0366 77.7983 27.1529 77.7948 27.2699V27.8759C77.9727 27.4537 78.2714 27.0935 78.6533 26.8406C79.0299 26.5943 79.4662 26.4547 79.9158 26.4366L80.1178 26.4114C80.3426 26.3928 80.5666 26.4555 80.7491 26.5881Z" fill="#3D3D3D"/>
<path d="M87.7433 26.5629C87.8752 26.4686 88.0362 26.4239 88.1978 26.4366C88.428 26.4382 88.6507 26.5184 88.829 26.6639C88.9151 26.7343 88.9847 26.8229 89.0327 26.9233C89.0807 27.0236 89.106 27.1333 89.1068 27.2446C89.1123 27.3703 89.0768 27.4943 89.0058 27.5981L86.203 33.4561C86.1185 33.6312 85.9875 33.7797 85.8243 33.8853C85.6578 33.9886 85.4647 34.0413 85.2688 34.0368C85.0733 34.0375 84.8814 33.9851 84.7133 33.8853C84.5421 33.7816 84.4025 33.6332 84.3093 33.4561L81.4813 27.5981C81.4296 27.4875 81.4037 27.3667 81.4056 27.2446C81.4055 27.1305 81.433 27.0181 81.4858 26.917C81.5385 26.8159 81.615 26.729 81.7086 26.6639C81.9019 26.5071 82.1415 26.4184 82.3903 26.4114C82.5625 26.4094 82.7312 26.4588 82.8752 26.5533C83.0191 26.6477 83.1316 26.7829 83.1983 26.9416L85.3193 31.6128L87.415 26.9416C87.4963 26.7935 87.6082 26.6644 87.7433 26.5629Z" fill="#3D3D3D"/>
<path d="M90.344 24.7954C90.2478 24.6992 90.1715 24.5851 90.1195 24.4594C90.0674 24.3338 90.0406 24.1991 90.0406 24.0631C90.0406 23.9271 90.0674 23.7925 90.1195 23.6668C90.1715 23.5412 90.2478 23.427 90.344 23.3309C90.5748 23.1507 90.8592 23.0528 91.152 23.0528C91.4448 23.0528 91.7292 23.1507 91.96 23.3309C92.0562 23.427 92.1325 23.5412 92.1846 23.6668C92.2367 23.7925 92.2635 23.9271 92.2635 24.0631C92.2635 24.1991 92.2367 24.3338 92.1846 24.4594C92.1325 24.5851 92.0562 24.6992 91.96 24.7954C91.7337 24.9836 91.4462 25.0824 91.152 25.0731C91.0056 25.0836 90.8585 25.0644 90.7197 25.0166C90.5809 24.9689 90.4531 24.8937 90.344 24.7954ZM90.4955 33.8348C90.4053 33.7472 90.3357 33.6405 90.292 33.5226C90.2483 33.4046 90.2316 33.2784 90.243 33.1531V27.2951C90.2373 27.1742 90.2568 27.0533 90.3003 26.9403C90.3438 26.8273 90.4102 26.7246 90.4955 26.6386C90.6922 26.4911 90.9314 26.4114 91.1773 26.4114C91.4231 26.4114 91.6623 26.4911 91.859 26.6386C91.9509 26.7208 92.0234 26.8223 92.0714 26.9358C92.1194 27.0493 92.1417 27.172 92.1368 27.2951V33.1531C92.1441 33.2802 92.123 33.4074 92.0749 33.5253C92.0269 33.6433 91.9531 33.749 91.859 33.8348C91.6673 33.9916 91.4247 34.0725 91.1773 34.0621C91.0541 34.0731 90.93 34.0586 90.8127 34.0195C90.6954 33.9804 90.5874 33.9176 90.4955 33.8348Z" fill="#3D3D3D"/>
<path d="M95.4192 33.6328C94.8648 33.3269 94.4159 32.8603 94.1315 32.2946C93.828 31.6592 93.6726 30.9632 93.677 30.2591C93.6814 29.5549 93.8454 28.8609 94.1568 28.2293C94.4595 27.6535 94.9249 27.1793 95.495 26.8659C96.1061 26.5332 96.7942 26.3677 97.4897 26.3861C97.8921 26.3829 98.2925 26.4425 98.6765 26.5629C99.0535 26.6522 99.4123 26.8059 99.737 27.0173C99.8828 27.0958 100.004 27.2124 100.089 27.3548C100.174 27.4971 100.218 27.6598 100.217 27.8253C100.228 28.0142 100.175 28.2013 100.065 28.3556C100.017 28.4171 99.9558 28.4671 99.8859 28.502C99.8161 28.5369 99.7393 28.5559 99.6612 28.5576C99.5398 28.5542 99.4199 28.5285 99.3077 28.4818C99.1828 28.4383 99.064 28.3789 98.9542 28.3051C98.7516 28.1886 98.5406 28.0873 98.323 28.0021C98.0953 27.9261 97.8558 27.8919 97.616 27.9011C97.3455 27.8834 97.0746 27.9289 96.8248 28.0341C96.575 28.1393 96.3531 28.3012 96.1767 28.5071C95.8127 29.0219 95.6346 29.6452 95.6717 30.2746C95.6343 30.8962 95.8127 31.5116 96.1767 32.0168C96.3531 32.2227 96.575 32.3846 96.8248 32.4898C97.0746 32.595 97.3455 32.6406 97.616 32.6228C97.8475 32.6302 98.0784 32.596 98.2977 32.5218C98.5216 32.4321 98.7407 32.331 98.9542 32.2188C99.0808 32.1365 99.2164 32.0687 99.3582 32.0168C99.4608 31.9679 99.5728 31.942 99.6865 31.9411C99.7646 31.9427 99.8413 31.9617 99.9112 31.9967C99.981 32.0316 100.042 32.0816 100.09 32.1431C100.201 32.2982 100.263 32.4829 100.267 32.6733C100.28 32.835 100.235 32.9959 100.141 33.1278C100.047 33.2759 99.9165 33.3976 99.7622 33.4813C99.0557 33.9141 98.2425 34.1414 97.414 34.1378C96.7169 34.1421 96.0303 33.9683 95.4192 33.6328Z" fill="#3D3D3D"/>
<path d="M107.741 32.1431C107.851 32.2973 107.904 32.4845 107.893 32.6733C107.884 32.843 107.827 33.0067 107.729 33.1453C107.63 33.2839 107.494 33.3917 107.337 33.4561C106.974 33.6633 106.583 33.8164 106.176 33.9106C105.771 34.0153 105.356 34.0746 104.938 34.0873C103.752 34.0873 102.792 33.7338 102.11 33.0521C101.429 32.3703 101.075 31.4361 101.075 30.2241C101.061 29.5239 101.217 28.8308 101.53 28.2041C101.82 27.6363 102.267 27.1633 102.817 26.8406C103.368 26.5347 103.986 26.3699 104.616 26.3611C105.247 26.3523 105.869 26.4997 106.428 26.7901C106.925 27.0842 107.327 27.5133 107.59 28.0273C107.876 28.6165 108.015 29.2664 107.994 29.9211C107.994 30.3503 107.792 30.5776 107.413 30.5776H102.918C102.969 31.2846 103.171 31.7896 103.499 32.1178C103.697 32.2963 103.928 32.433 104.18 32.5197C104.432 32.6065 104.698 32.6416 104.964 32.6228C105.255 32.6236 105.544 32.5811 105.822 32.4966C106.075 32.4208 106.352 32.2946 106.655 32.1683C106.858 32.0464 107.08 31.961 107.312 31.9158C107.475 31.9443 107.626 32.0239 107.741 32.1431ZM103.474 28.2041C103.147 28.5966 102.952 29.0828 102.918 29.5928H106.352C106.366 29.0913 106.206 28.6005 105.898 28.2041C105.749 28.0399 105.565 27.9115 105.359 27.8285C105.154 27.7454 104.932 27.7098 104.711 27.7244C104.483 27.7158 104.256 27.7539 104.043 27.8364C103.83 27.9189 103.637 28.044 103.474 28.2041Z" fill="#3D3D3D"/>
<path d="M67.5686 47.2173C67.5698 47.319 67.5477 47.4198 67.5039 47.5117C67.4602 47.6036 67.3959 47.6843 67.3162 47.7475C67.1679 47.8931 66.9684 47.9746 66.7607 47.9746C66.5529 47.9746 66.3534 47.8931 66.2052 47.7475L64.9427 46.5355C64.4853 46.9878 63.9453 47.3478 63.3519 47.596C62.7787 47.8469 62.1596 47.9759 61.5339 47.9747C60.8857 47.9817 60.2423 47.8616 59.6402 47.6213C59.1159 47.4148 58.6667 47.0537 58.3524 46.586C58.0479 46.1307 57.8894 45.5934 57.898 45.0458C57.8841 44.4272 58.0799 43.822 58.4534 43.3288C58.9182 42.7402 59.5037 42.2581 60.1704 41.9148C59.8342 41.5673 59.5455 41.1767 59.3119 40.7533C59.134 40.3916 59.0392 39.9948 59.0342 39.5918C59.023 39.2438 59.0897 38.8976 59.2295 38.5787C59.3693 38.2598 59.5786 37.9761 59.8422 37.7486C60.4425 37.2704 61.1967 37.028 61.9632 37.0668C62.7712 37.0668 63.4277 37.2688 63.8822 37.6981C64.1215 37.9085 64.3113 38.1693 64.4379 38.4618C64.5645 38.7543 64.6248 39.0712 64.6144 39.3898C64.626 39.9184 64.4567 40.435 64.1347 40.8543C63.7235 41.3667 63.2178 41.7953 62.6449 42.1168L64.7659 44.1873C65.0577 43.5126 65.245 42.7974 65.3214 42.0663C65.3341 41.8437 65.4339 41.6351 65.5992 41.4855C65.7556 41.3563 65.9518 41.2849 66.1547 41.2835C66.258 41.2807 66.3607 41.2994 66.4564 41.3385C66.552 41.3777 66.6385 41.4363 66.7102 41.5108C66.785 41.5961 66.8398 41.697 66.8703 41.8063C66.9009 41.9156 66.9066 42.0303 66.8869 42.142C66.799 43.2511 66.4717 44.3279 65.9274 45.2983L67.3162 46.6618C67.4651 46.81 67.5549 47.0075 67.5686 47.2173ZM62.8217 46.2578C63.2107 46.0697 63.5685 45.8227 63.8822 45.5255L61.2057 42.9248C60.7731 43.1645 60.3948 43.4912 60.0947 43.8843C59.8655 44.2095 59.7421 44.5974 59.7412 44.9953C59.7336 45.2106 59.7751 45.4248 59.8626 45.6216C59.9501 45.8185 60.0813 45.9929 60.2462 46.1315C60.6376 46.4251 61.1215 46.5685 61.6097 46.5355C62.0292 46.5336 62.4431 46.4387 62.8217 46.2578ZM61.0794 38.7081C60.9646 38.8191 60.874 38.9527 60.8132 39.1004C60.7524 39.2482 60.7227 39.4068 60.7259 39.5665C60.7335 39.8233 60.8028 40.0744 60.9279 40.2988C61.1177 40.6052 61.3469 40.8854 61.6097 41.132C62.0151 40.9146 62.3889 40.6427 62.7207 40.324C62.9376 40.0915 63.0554 39.7835 63.0489 39.4655C63.0558 39.3211 63.0324 39.1769 62.9802 39.0421C62.9281 38.9073 62.8484 38.7848 62.7461 38.6826C62.6439 38.5804 62.5215 38.5006 62.3866 38.4485C62.2518 38.3964 62.1076 38.373 61.9632 38.3798C61.6381 38.376 61.3232 38.493 61.0794 38.7081Z" fill="#3D3D3D"/>
<path d="M73.1489 47.697C73.0584 47.6032 72.9873 47.4924 72.9397 47.3711C72.892 47.2498 72.8687 47.1203 72.8711 46.99V38.1021C72.8663 37.9714 72.8884 37.8412 72.9362 37.7196C72.984 37.5979 73.0564 37.4874 73.1489 37.395C73.2429 37.3065 73.3543 37.2383 73.476 37.1949C73.5976 37.1514 73.727 37.1336 73.8559 37.1426C74.1216 37.1409 74.3799 37.2299 74.5881 37.395C74.6767 37.4891 74.7448 37.6005 74.7883 37.7221C74.8317 37.8438 74.8496 37.9732 74.8406 38.1021V46.99C74.8469 47.2488 74.7569 47.5007 74.5881 47.697C74.4921 47.7917 74.3774 47.8653 74.2513 47.9131C74.1252 47.9609 73.9905 47.9819 73.8559 47.9747C73.7253 47.9796 73.595 47.9575 73.4734 47.9097C73.3517 47.8619 73.2413 47.7895 73.1489 47.697Z" fill="#3D3D3D"/>
<path d="M83.2488 41.031C83.6781 41.536 83.9053 42.2935 83.9053 43.3288V47.0658C83.9145 47.1871 83.8966 47.3089 83.853 47.4224C83.8093 47.536 83.7409 47.6384 83.6528 47.7222C83.464 47.8869 83.2215 47.9767 82.9711 47.9747C82.8422 47.9837 82.7128 47.9659 82.5912 47.9224C82.4695 47.879 82.3581 47.8108 82.2641 47.7222C82.176 47.6384 82.1076 47.536 82.0639 47.4224C82.0203 47.3089 82.0024 47.1871 82.0116 47.0658V43.455C82.0116 42.8743 81.9106 42.4703 81.6833 42.1925C81.5545 42.0557 81.3974 41.9487 81.223 41.8789C81.0485 41.8091 80.8609 41.7783 80.6733 41.7885C80.4316 41.7783 80.1903 41.8179 79.9644 41.9048C79.7386 41.9916 79.533 42.124 79.3603 42.2935C79.0245 42.6756 78.8522 43.1743 78.8806 43.6823V47.0658C78.8898 47.1871 78.8719 47.3089 78.8282 47.4224C78.7846 47.536 78.7162 47.6384 78.6281 47.7222C78.4318 47.8911 78.1799 47.981 77.9211 47.9747C77.7958 47.9862 77.6696 47.9694 77.5516 47.9257C77.4337 47.882 77.327 47.8125 77.2393 47.7222C77.1512 47.6384 77.0829 47.536 77.0392 47.4224C76.9955 47.3089 76.9776 47.1871 76.9868 47.0658V41.2078C76.98 41.0905 76.9991 40.9731 77.0427 40.864C77.0864 40.7549 77.1535 40.6568 77.2393 40.5765C77.4356 40.4077 77.6875 40.3178 77.9463 40.324C78.1854 40.318 78.4187 40.3987 78.6028 40.5513C78.6877 40.6269 78.7544 40.7206 78.7982 40.8255C78.8419 40.9304 78.8614 41.0438 78.8553 41.1573V41.5613C79.0999 41.1567 79.4487 40.8253 79.8653 40.6018C80.3107 40.3754 80.8051 40.2626 81.3046 40.2735C82.1631 40.2735 82.8196 40.526 83.2488 41.031Z" fill="#3D3D3D"/>
<path d="M92.1115 41.031C92.5408 41.536 92.768 42.2935 92.768 43.3288V47.0658C92.7772 47.1871 92.7593 47.3089 92.7157 47.4224C92.672 47.536 92.6036 47.6384 92.5155 47.7222C92.3267 47.8869 92.0842 47.9767 91.8338 47.9747C91.7049 47.9837 91.5756 47.9659 91.4539 47.9224C91.3322 47.879 91.2208 47.8108 91.1268 47.7222C91.0387 47.6384 90.9703 47.536 90.9266 47.4224C90.883 47.3089 90.8651 47.1871 90.8743 47.0658V43.455C90.8743 42.8743 90.7733 42.4703 90.546 42.1925C90.4173 42.0557 90.2601 41.9487 90.0857 41.8789C89.9112 41.8091 89.7236 41.7783 89.536 41.7885C89.2943 41.7783 89.053 41.8179 88.8271 41.9048C88.6013 41.9916 88.3957 42.124 88.223 42.2935C87.8872 42.6756 87.7149 43.1743 87.7433 43.6823V47.0658C87.7525 47.1871 87.7346 47.3089 87.6909 47.4224C87.6473 47.536 87.5789 47.6384 87.4908 47.7222C87.2945 47.8911 87.0426 47.981 86.7838 47.9747C86.6585 47.9862 86.5323 47.9694 86.4143 47.9257C86.2964 47.882 86.1897 47.8125 86.102 47.7222C86.0139 47.6384 85.9456 47.536 85.9019 47.4224C85.8582 47.3089 85.8403 47.1871 85.8496 47.0658V41.2078C85.8427 41.0905 85.8618 40.9731 85.9054 40.864C85.9491 40.7549 86.0162 40.6568 86.102 40.5765C86.2983 40.4077 86.5503 40.3178 86.8091 40.324C87.0482 40.318 87.2814 40.3987 87.4655 40.5513C87.5504 40.6269 87.6171 40.7206 87.6609 40.8255C87.7046 40.9304 87.7241 41.0438 87.718 41.1573V41.5613C87.9626 41.1567 88.3114 40.8253 88.728 40.6018C89.1734 40.3754 89.6678 40.2626 90.1673 40.2735C91.0258 40.2735 91.6823 40.526 92.1115 41.031Z" fill="#3D3D3D"/>
<path d="M96.0757 47.5203C95.507 47.2166 95.0412 46.7508 94.7375 46.182C94.4136 45.5494 94.2489 44.8474 94.2578 44.1368C94.2366 43.4248 94.4019 42.7198 94.7375 42.0915C95.0339 41.5174 95.5016 41.0497 96.0757 40.7533C96.6913 40.4323 97.3763 40.2675 98.0705 40.2735C98.766 40.2552 99.4541 40.4207 100.065 40.7533C100.632 41.0509 101.091 41.519 101.378 42.0915C101.678 42.7318 101.833 43.43 101.833 44.1368C101.833 44.8436 101.678 45.5418 101.378 46.182C101.084 46.7493 100.627 47.2154 100.065 47.5203C99.4497 47.8413 98.7647 48.006 98.0705 48C97.3749 48.0184 96.6869 47.8529 96.0757 47.5203ZM99.4592 45.9295C99.7875 45.5255 99.939 44.9195 99.939 44.1368C99.939 43.354 99.7875 42.7733 99.4592 42.344C99.2953 42.1367 99.0829 41.973 98.8407 41.8673C98.5985 41.7616 98.3339 41.7172 98.0705 41.738C97.8074 41.7202 97.5438 41.766 97.3021 41.8715C97.0604 41.9769 96.8476 42.139 96.6817 42.344C96.3535 42.748 96.1767 43.354 96.1767 44.1368C96.1767 44.9195 96.3283 45.5255 96.6565 45.9295C96.8242 46.1325 97.0372 46.2931 97.2785 46.3983C97.5198 46.5036 97.7824 46.5506 98.0452 46.5355C98.312 46.5532 98.5792 46.5076 98.825 46.4022C99.0707 46.2969 99.2881 46.1349 99.4592 45.9295Z" fill="#3D3D3D"/>
<path d="M108.776 40.4503C108.908 40.3561 109.069 40.3114 109.231 40.324C109.461 40.3257 109.684 40.4058 109.862 40.5513C109.948 40.6218 110.018 40.7103 110.066 40.8107C110.114 40.9111 110.139 41.0208 110.14 41.132C110.145 41.2577 110.11 41.3818 110.039 41.4855L107.236 47.3435C107.152 47.5186 107.021 47.6671 106.857 47.7728C106.691 47.8761 106.498 47.9287 106.302 47.9243C106.106 47.9249 105.915 47.8726 105.746 47.7728C105.575 47.6691 105.436 47.5206 105.342 47.3435L102.514 41.4855C102.463 41.375 102.437 41.2541 102.439 41.132C102.439 41.018 102.466 40.9056 102.519 40.8045C102.572 40.7033 102.648 40.6165 102.742 40.5513C102.935 40.3946 103.175 40.3058 103.423 40.2988C103.596 40.2969 103.764 40.3463 103.908 40.4407C104.052 40.5352 104.165 40.6704 104.231 40.829L106.352 45.5003L108.448 40.829C108.529 40.6809 108.641 40.5518 108.776 40.4503Z" fill="#3D3D3D"/>
<path d="M116.654 41.0563C117.159 41.5613 117.412 42.344 117.412 43.3793V47.0658C117.422 47.1834 117.404 47.3017 117.36 47.4113C117.317 47.5209 117.248 47.6187 117.159 47.697C117.07 47.7764 116.967 47.8374 116.854 47.8764C116.741 47.9154 116.622 47.9317 116.503 47.9242C116.386 47.927 116.27 47.906 116.161 47.8626C116.053 47.8192 115.954 47.7542 115.872 47.6716C115.789 47.5889 115.724 47.4904 115.681 47.3819C115.637 47.2735 115.616 47.1573 115.619 47.0405V46.7123C115.45 47.0981 115.169 47.4238 114.811 47.6465C114.422 47.8757 113.975 47.9895 113.523 47.9747C113.06 47.9822 112.601 47.8783 112.185 47.6718C111.796 47.4861 111.464 47.198 111.226 46.8385C110.996 46.4854 110.873 46.0732 110.872 45.6518C110.838 45.1868 110.983 44.7263 111.276 44.364C111.654 44.0084 112.128 43.7714 112.64 43.6823C113.497 43.5196 114.369 43.4518 115.24 43.4803H115.619V43.1268C115.619 42.6218 115.518 42.2683 115.291 42.041C115.153 41.9129 114.989 41.8152 114.811 41.7544C114.632 41.6935 114.443 41.6707 114.256 41.6875C113.957 41.6923 113.66 41.7347 113.372 41.8138C113.002 41.9142 112.639 42.0408 112.286 42.1925C112.108 42.2974 111.91 42.3661 111.705 42.3945C111.62 42.3934 111.536 42.3749 111.457 42.3402C111.379 42.3055 111.309 42.2552 111.251 42.1925C111.189 42.1245 111.142 42.0447 111.111 41.958C111.081 41.8712 111.068 41.7792 111.074 41.6875C111.074 41.5273 111.117 41.37 111.2 41.233C111.309 41.0784 111.457 40.9562 111.63 40.8795C112.025 40.664 112.45 40.5106 112.892 40.425C113.365 40.318 113.847 40.2588 114.331 40.2483C115.392 40.2735 116.149 40.5513 116.654 41.0563ZM115.114 46.1315C115.278 45.9559 115.405 45.7492 115.487 45.5237C115.57 45.2982 115.606 45.0583 115.594 44.8185V44.4903H115.316C114.792 44.4744 114.268 44.5082 113.751 44.5913C113.455 44.6191 113.174 44.7333 112.943 44.9195C112.86 45.0018 112.794 45.1003 112.751 45.2089C112.707 45.3175 112.687 45.4339 112.69 45.5508C112.688 45.6992 112.718 45.8463 112.78 45.9816C112.841 46.1169 112.931 46.237 113.044 46.3335C113.273 46.5363 113.571 46.6446 113.877 46.6365C114.107 46.6441 114.336 46.6031 114.549 46.5161C114.763 46.4291 114.955 46.298 115.114 46.1315Z" fill="#3D3D3D"/>
<path d="M123.926 47.2425C123.932 47.354 123.907 47.4649 123.853 47.5629C123.8 47.661 123.72 47.7423 123.623 47.798C123.368 47.9348 123.077 47.9878 122.79 47.9495L122.386 47.9242C120.694 47.798 119.836 46.889 119.836 45.1973V41.8895H119.078C118.854 41.9081 118.63 41.8454 118.447 41.7128C118.375 41.6444 118.318 41.5621 118.279 41.471C118.24 41.3798 118.22 41.2817 118.22 41.1825C118.22 41.0834 118.24 40.9852 118.279 40.8941C118.318 40.8029 118.375 40.7207 118.447 40.6523C118.63 40.5197 118.854 40.457 119.078 40.4755H119.836V39.0615C119.829 38.9405 119.848 38.8193 119.892 38.7062C119.935 38.593 120.002 38.4903 120.088 38.405C120.285 38.2362 120.537 38.1463 120.795 38.1525C120.92 38.1458 121.045 38.1647 121.162 38.2081C121.28 38.2515 121.387 38.3186 121.477 38.405C121.565 38.4889 121.634 38.5913 121.677 38.7049C121.721 38.8184 121.739 38.9402 121.73 39.0615V40.4503H123.017C123.242 40.4317 123.466 40.4944 123.649 40.627C123.72 40.6954 123.778 40.7777 123.817 40.8688C123.856 40.96 123.876 41.0581 123.876 41.1573C123.876 41.2564 123.856 41.3546 123.817 41.4457C123.778 41.5369 123.72 41.6191 123.649 41.6875C123.466 41.8201 123.242 41.8829 123.017 41.8643H121.73V45.2983C121.73 46.0558 122.083 46.4345 122.765 46.485L123.169 46.5103C123.674 46.586 123.926 46.8133 123.926 47.2425Z" fill="#3D3D3D"/>
<path d="M125.037 38.6828C124.941 38.5867 124.865 38.4725 124.813 38.3469C124.761 38.2212 124.734 38.0866 124.734 37.9505C124.734 37.8145 124.761 37.6799 124.813 37.5542C124.865 37.4286 124.941 37.3144 125.037 37.2183C125.268 37.0381 125.553 36.9402 125.845 36.9402C126.138 36.9402 126.423 37.0381 126.653 37.2183C126.75 37.3144 126.826 37.4286 126.878 37.5542C126.93 37.6799 126.957 37.8145 126.957 37.9505C126.957 38.0866 126.93 38.2212 126.878 38.3469C126.826 38.4725 126.75 38.5867 126.653 38.6828C126.427 38.871 126.14 38.9698 125.845 38.9605C125.699 38.971 125.552 38.9518 125.413 38.9041C125.274 38.8563 125.146 38.7811 125.037 38.6828ZM125.189 47.7222C125.099 47.6346 125.029 47.5279 124.985 47.41C124.942 47.292 124.925 47.1658 124.936 47.0405V41.1825C124.925 41.061 124.941 40.9385 124.985 40.8245C125.029 40.7106 125.099 40.6084 125.189 40.526C125.386 40.3785 125.625 40.2988 125.871 40.2988C126.116 40.2988 126.356 40.3785 126.552 40.526C126.644 40.6082 126.717 40.7097 126.765 40.8232C126.813 40.9367 126.835 41.0594 126.83 41.1825V47.0405C126.837 47.1676 126.816 47.2948 126.768 47.4128C126.72 47.5307 126.646 47.6364 126.552 47.7222C126.361 47.879 126.118 47.9599 125.871 47.9495C125.747 47.9605 125.623 47.9461 125.506 47.907C125.389 47.8679 125.281 47.805 125.189 47.7222Z" fill="#3D3D3D"/>
<path d="M130.138 47.5203C129.569 47.2166 129.103 46.7508 128.8 46.182C128.476 45.5494 128.311 44.8474 128.32 44.1368C128.299 43.4248 128.464 42.7198 128.8 42.0915C129.096 41.5174 129.564 41.0497 130.138 40.7533C130.753 40.4323 131.438 40.2675 132.133 40.2735C132.828 40.2552 133.516 40.4207 134.127 40.7533C134.694 41.0509 135.154 41.519 135.44 42.0915C135.74 42.7318 135.895 43.43 135.895 44.1368C135.895 44.8435 135.74 45.5417 135.44 46.182C135.146 46.7493 134.689 47.2154 134.127 47.5203C133.512 47.8413 132.827 48.006 132.133 48C131.437 48.0184 130.749 47.8529 130.138 47.5203ZM133.547 45.9295C133.875 45.5255 134.026 44.9195 134.026 44.1368C134.026 43.354 133.875 42.7733 133.547 42.344C133.383 42.1367 133.17 41.973 132.928 41.8673C132.686 41.7616 132.421 41.7172 132.158 41.738C131.895 41.7202 131.631 41.766 131.389 41.8715C131.148 41.9769 130.935 42.139 130.769 42.344C130.441 42.748 130.264 43.354 130.264 44.1368C130.264 44.9195 130.416 45.5255 130.744 45.9295C130.911 46.1325 131.125 46.2931 131.366 46.3983C131.607 46.5036 131.87 46.5506 132.133 46.5355C132.399 46.5506 132.665 46.5038 132.911 46.3986C133.156 46.2935 133.374 46.1329 133.547 45.9295Z" fill="#3D3D3D"/>
<path d="M143.773 41.031C144.202 41.536 144.429 42.2935 144.429 43.3288V47.0658C144.438 47.1871 144.421 47.3089 144.377 47.4224C144.333 47.536 144.265 47.6384 144.177 47.7222C143.988 47.8869 143.745 47.9767 143.495 47.9747C143.366 47.9837 143.237 47.9659 143.115 47.9224C142.993 47.879 142.882 47.8108 142.788 47.7222C142.7 47.6384 142.632 47.536 142.588 47.4224C142.544 47.3089 142.526 47.1871 142.536 47.0658V43.455C142.536 42.8743 142.434 42.4703 142.207 42.1925C142.078 42.0557 141.921 41.9487 141.747 41.8789C141.572 41.8091 141.385 41.7783 141.197 41.7885C140.955 41.7783 140.714 41.8179 140.488 41.9048C140.263 41.9916 140.057 42.124 139.884 42.2935C139.548 42.6756 139.376 43.1743 139.405 43.6823V47.0658C139.414 47.1871 139.396 47.3089 139.352 47.4224C139.308 47.536 139.24 47.6384 139.152 47.7222C138.956 47.8911 138.704 47.981 138.445 47.9747C138.32 47.9862 138.193 47.9694 138.076 47.9257C137.958 47.882 137.851 47.8125 137.763 47.7222C137.675 47.6384 137.607 47.536 137.563 47.4224C137.519 47.3089 137.502 47.1871 137.511 47.0658V41.2078C137.504 41.0905 137.523 40.9731 137.567 40.864C137.61 40.7549 137.677 40.6568 137.763 40.5765C137.96 40.4077 138.211 40.3178 138.47 40.324C138.709 40.318 138.943 40.3987 139.127 40.5513C139.212 40.6269 139.278 40.7206 139.322 40.8255C139.366 40.9304 139.385 41.0438 139.379 41.1573V41.5613C139.624 41.1567 139.973 40.8253 140.389 40.6018C140.835 40.3754 141.329 40.2626 141.828 40.2735C142.662 40.2735 143.318 40.526 143.773 41.031Z" fill="#3D3D3D"/>
</g>
<defs>
<clipPath id="clip0_1_4095">
<rect width="144.429" height="48" fill="white"/>
</clipPath>
</defs>
</svg>
